<?xml version="1.0" encoding="UTF-8"?>
<svg id="Layer_2" xmlns="http://www.w3.org/2000/svg" viewBox="0 0 766.34 232.65">
  <defs>
    <style>
      .cls-1 {
        fill: #2173c4;
      }
    </style>
  </defs>
  <g id="katman_1">
    <g>
      <path class="cls-1" d="M185.41,213.97v18.48H0V1.52h188.94v50.47h-124.28v38.93h102.6v48.83h-102.6v42.23h88.75c17.67,0,32,14.33,32,32Z"/>
      <path class="cls-1" d="M203.64,1.52h65.32v89.68c0,49.41,40.06,89.47,89.47,89.47l55.02-.11-24.88,51.91h-45.39c-77.07,0-139.54-62.48-139.54-139.54V1.52Z"/>
      <path class="cls-1" d="M278.56,232.65s-35.46-5.12-66.91-50.67h-62.86v50.47"/>
      <path class="cls-1" d="M676.35,191.88h-82.26l-14.53,40.5h-85.11L610.18,0h46.08l110.09,232.39h-75.45l-14.53-40.5ZM656.25,135.45l-21.03-58.43-21.03,58.43h42.05Z"/>
      <polygon class="cls-1" points="369.55 0 437.6 0 479.72 86.02 520.84 0 590.71 0 476.74 232.39 407.87 232.39 445.03 156.38 369.55 0"/>
    </g>
  </g>
</svg>