<?xml version="1.0" encoding="UTF-8"?>
<svg id="Layer_2" xmlns="http://www.w3.org/2000/svg" viewBox="0 0 29.95 38.96">
  <defs>
    <style>
      .cls-1 {
        fill: #c1edd3;
      }

      .cls-2 {
        fill: #09b850;
      }
    </style>
  </defs>
  <g id="Layer_1-2" data-name="Layer_1">
    <g>
      <path class="cls-1" d="M6.98,2.86c.09-.28.4-.44.68-.34.16.05.29.18.34.34l.97,2.9c.43,1.29,1.45,2.31,2.74,2.74l2.9.97c.28.09.44.4.34.68-.05.16-.18.29-.34.34l-2.9.97c-1.29.43-2.31,1.44-2.74,2.74l-.97,2.9c-.09.28-.4.44-.68.34-.16-.05-.29-.18-.34-.34l-.97-2.9c-.43-1.29-1.44-2.31-2.74-2.74l-2.9-.97c-.28-.09-.44-.4-.34-.68.05-.16.18-.29.34-.34l2.9-.97c1.29-.43,2.31-1.44,2.74-2.74l.97-2.9ZM24.62.24c.07-.19.27-.29.46-.22.1.04.19.12.22.22l.64,1.93c.29.86.96,1.54,1.83,1.83l1.93.64c.19.07.29.27.22.46-.04.1-.12.19-.22.22l-1.93.64c-.86.29-1.54.96-1.83,1.83l-.64,1.93c-.07.19-.27.29-.46.22-.1-.04-.19-.12-.22-.22l-.64-1.93c-.29-.86-.96-1.54-1.83-1.83l-1.93-.64c-.19-.07-.29-.27-.22-.46.04-.1.12-.19.22-.22l1.93-.64c.86-.29,1.54-.96,1.83-1.83l.64-1.93Z"/>
      <path class="cls-2" d="M16.61,14.61c.27-.82,1.44-.82,1.71,0l1.61,4.83c.72,2.15,2.41,3.85,4.56,4.56l4.83,1.61c.82.27.82,1.44,0,1.71l-4.83,1.61c-2.15.72-3.85,2.41-4.56,4.56l-1.61,4.83c-.16.47-.66.73-1.14.58-.27-.09-.49-.3-.58-.58l-1.61-4.83c-.72-2.15-2.41-3.84-4.56-4.56l-4.83-1.61c-.47-.16-.73-.66-.58-1.14.09-.27.3-.49.58-.58l4.83-1.61c2.15-.72,3.84-2.41,4.56-4.56l1.61-4.83Z"/>
    </g>
  </g>
</svg>