<?xml version="1.0" encoding="UTF-8"?>
<svg id="Layer_2" xmlns="http://www.w3.org/2000/svg" viewBox="0 0 27.04 27.04">
  <defs>
    <style>
      .cls-1 {
        fill: #d6293e;
      }
    </style>
  </defs>
  <g id="Layer_1-2" data-name="Layer_1">
    <path class="cls-1" d="M27.04,13.52c0,7.47-6.05,13.52-13.52,13.52S0,20.99,0,13.52,6.05,0,13.52,0s13.52,6.05,13.52,13.52M9.05,7.85c-.33-.33-.87-.33-1.2,0s-.33.87,0,1.2l4.47,4.47-4.47,4.47c-.33.33-.33.87,0,1.2s.87.33,1.2,0l4.47-4.47,4.47,4.47c.33.33.87.33,1.2,0s.33-.87,0-1.2l-4.47-4.47,4.47-4.47c.33-.33.33-.87,0-1.2s-.87-.33-1.2,0l-4.47,4.47-4.47-4.47Z"/>
  </g>
</svg>