<?xml version="1.0" encoding="UTF-8"?>
<svg id="Layer_2" xmlns="http://www.w3.org/2000/svg" viewBox="0 0 27.59 27.59">
  <defs>
    <style>
      .cls-1 {
        fill: #0cbc87;
      }
    </style>
  </defs>
  <g id="Layer_1-2" data-name="Layer_1">
    <path class="cls-1" d="M27.59,13.8c0,7.62-6.18,13.8-13.8,13.8S0,21.42,0,13.8,6.18,0,13.8,0s13.8,6.18,13.8,13.8M20.75,8.57c-.51-.5-1.32-.5-1.83,0-.01.01-.02.02-.03.03l-5.99,7.63-3.61-3.61c-.52-.49-1.34-.46-1.83.06-.46.5-.46,1.27,0,1.76l4.56,4.57c.51.5,1.32.5,1.83,0,.01-.01.02-.02.03-.03l6.88-8.61c.49-.51.48-1.31-.02-1.81h0Z"/>
  </g>
</svg>