<?xml version="1.0" encoding="UTF-8"?>
<svg id="Layer_2" xmlns="http://www.w3.org/2000/svg" viewBox="0 0 55.75 48.77">
  <defs>
    <style>
      .cls-1 {
        fill: #fff;
      }

      .cls-2 {
        fill: #db0025;
      }
    </style>
  </defs>
  <g id="Layer_1-2" data-name="Layer_1">
    <polygon class="cls-2" points="27.88 .33 .69 47.42 55.06 47.42 27.88 .33"/>
    <g>
      <path class="cls-2" d="M27.65,3.54c.07-.04.15-.06.22-.06.08,0,.15.02.22.06.08.05.14.12.19.2l23.89,40.64c.13.21.12.43,0,.64-.05.08-.11.15-.19.21-.07.05-.15.07-.23.06H3.99c-.08,0-.16-.01-.23-.06-.08-.06-.14-.13-.19-.21-.11-.2-.11-.44,0-.64L27.46,3.74c.04-.08.11-.15.19-.2M31.29,1.98c-1.08-1.89-3.49-2.54-5.37-1.45-.6.35-1.11.85-1.45,1.45L.57,42.62c-1.59,2.71.32,6.16,3.41,6.16h47.77c3.1,0,5.01-3.45,3.41-6.16L31.29,1.98Z"/>
      <path class="cls-1" d="M24.39,37.83c0-1.92,1.56-3.48,3.48-3.48s3.48,1.56,3.48,3.48-1.56,3.48-3.48,3.48-3.48-1.56-3.48-3.48M24.73,16.91c-.18-1.73,1.07-3.28,2.8-3.47,1.73-.18,3.28,1.07,3.47,2.8.02.22.02.44,0,.66l-1.22,12.22c-.09,1.06-1.02,1.84-2.08,1.75-.93-.08-1.67-.82-1.75-1.75l-1.22-12.22Z"/>
    </g>
  </g>
</svg>