<?xml version="1.0" encoding="UTF-8"?>
<svg id="Layer_2" xmlns="http://www.w3.org/2000/svg" viewBox="0 0 45.99 45.99">
  <defs>
    <style>
      .cls-1 {
        fill: #39c7ff;
      }

      .cls-2 {
        fill: #fff;
      }
    </style>
  </defs>
  <g id="Layer_1-2" data-name="Layer_1">
    <g>
      <circle class="cls-1" cx="22.99" cy="22.99" r="22.99"/>
      <path class="cls-2" d="M27.17,17.26l-6.73.84-.24,1.12,1.32.24c.86.21,1.03.52.85,1.38l-2.17,10.19c-.57,2.64.31,3.88,2.37,3.88,1.6,0,3.46-.74,4.3-1.76l.26-1.22c-.59.52-1.45.72-2.02.72-.81,0-1.1-.57-.89-1.57l2.94-13.83ZM27.37,11.12c0,1.62-1.32,2.94-2.94,2.94s-2.94-1.32-2.94-2.94,1.32-2.94,2.94-2.94,2.94,1.32,2.94,2.94"/>
    </g>
  </g>
</svg>