<?xml version="1.0" encoding="UTF-8"?>
<svg id="Layer_2" xmlns="http://www.w3.org/2000/svg" viewBox="0 0 45.99 45.99">
  <defs>
    <style>
      .cls-1 {
        fill: #39c7ff;
      }
    </style>
  </defs>
  <g id="Layer_1-2" data-name="Layer_1">
    <path class="cls-1" d="M22.99,0C10.29,0,0,10.29,0,22.99s10.29,22.99,22.99,22.99,22.99-10.29,22.99-22.99S35.69,0,22.99,0ZM25.12,32.65c.57,0,1.43-.21,2.02-.72l-.26,1.22c-.84,1.02-2.7,1.76-4.3,1.76-2.07,0-2.94-1.24-2.37-3.88l2.17-10.19c.19-.86.02-1.17-.85-1.38l-1.32-.24.24-1.12,6.73-.84-2.94,13.83c-.21,1,.09,1.57.89,1.57ZM24.43,14.06c-1.62,0-2.94-1.32-2.94-2.94s1.32-2.94,2.94-2.94,2.94,1.32,2.94,2.94-1.32,2.94-2.94,2.94Z"/>
  </g>
</svg>