<?xml version="1.0" encoding="UTF-8"?>
<svg id="Layer_2" xmlns="http://www.w3.org/2000/svg" viewBox="0 0 37.11 40.65">
  <defs>
    <style>
      .cls-1 {
        fill: #c1edd3;
      }

      .cls-2 {
        fill: #09b850;
      }
    </style>
  </defs>
  <g id="Layer_1-2" data-name="Layer_1">
    <g>
      <path class="cls-2" d="M21.8,39.73c1.43-1.07,3.37-2.6,5.37-4.47,3.94-3.68,8.44-8.92,9.58-14.64C39.07,9.05,29.69,0,18.55,0S-1.96,9.05.35,20.62c1.14,5.72,5.64,10.96,9.58,14.64,2.01,1.87,3.94,3.41,5.37,4.47.1.07-.14-.11-.11-.08,1.84,1.33,4.86,1.33,6.71,0,.03-.02-.2.15-.11.08Z"/>
      <path class="cls-1" d="M25.84,19.27c0,4.03-3.26,7.29-7.29,7.29s-7.29-3.26-7.29-7.29,3.26-7.29,7.29-7.29,7.29,3.26,7.29,7.29Z"/>
    </g>
  </g>
</svg>