<?xml version="1.0" encoding="UTF-8"?>
<svg id="Layer_2" xmlns="http://www.w3.org/2000/svg" viewBox="0 0 44.53 48.77">
  <defs>
    <style>
      .cls-1 {
        fill: #fff;
      }

      .cls-2 {
        fill: #09b850;
      }
    </style>
  </defs>
  <g id="Layer_1-2" data-name="Layer_1">
    <g>
      <path class="cls-2" d="M26.16,47.68c1.72-1.28,4.04-3.12,6.45-5.37,4.73-4.42,10.12-10.7,11.5-17.57C46.88,10.86,35.63,0,22.26,0S-2.35,10.86.42,24.74c1.37,6.86,6.76,13.15,11.5,17.57,2.41,2.25,4.73,4.09,6.45,5.37.11.09-.17-.13-.13-.1,2.21,1.6,5.84,1.6,8.05,0,.04-.03-.24.18-.13.1Z"/>
      <path class="cls-1" d="M31.01,23.12c0,4.83-3.92,8.75-8.75,8.75s-8.75-3.92-8.75-8.75,3.92-8.75,8.75-8.75,8.75,3.92,8.75,8.75Z"/>
    </g>
  </g>
</svg>