<?xml version="1.0" encoding="UTF-8"?>
<svg id="Layer_2" xmlns="http://www.w3.org/2000/svg" viewBox="0 0 20.73 22.71">
  <defs>
    <style>
      .cls-1 {
        fill: #c1edd3;
      }

      .cls-2 {
        fill: #09b850;
      }
    </style>
  </defs>
  <g id="Layer_1-2" data-name="Layer_1">
    <g>
      <path class="cls-1" d="M12.18,22.19c.8-.6,1.88-1.45,3-2.5,2.2-2.06,4.71-4.98,5.35-8.18C21.82,5.05,16.59,0,10.36,0S-1.1,5.05.2,11.52c.64,3.2,3.15,6.12,5.35,8.18,1.12,1.05,2.2,1.9,3,2.5.05.04-.08-.06-.06-.05,1.03.74,2.72.74,3.75,0,.02-.01-.11.09-.06.05Z"/>
      <path class="cls-2" d="M14.44,10.77c0,2.25-1.82,4.07-4.07,4.07s-4.07-1.82-4.07-4.07,1.82-4.07,4.07-4.07,4.07,1.82,4.07,4.07Z"/>
    </g>
  </g>
</svg>