<?xml version="1.0" encoding="UTF-8"?>
<svg id="Layer_2" xmlns="http://www.w3.org/2000/svg" viewBox="0 0 40.62 34.37">
  <defs>
    <style>
      .cls-1 {
        fill: #c1edd3;
      }

      .cls-2 {
        fill: #09b850;
      }
    </style>
  </defs>
  <g id="Layer_1-2" data-name="Layer_1">
    <g>
      <path class="cls-1" d="M.48,8.68c-.48,1.84-.48,4.23-.48,8.51,0,4.85,0,7.27.69,9.22,1.21,3.4,3.88,6.07,7.28,7.28,1.95.69,4.37.69,9.22.69h6.25c4.85,0,7.27,0,9.22-.69,3.4-1.21,6.07-3.88,7.28-7.28.69-1.95.69-4.37.69-9.22,0-4.28,0-6.67-.48-8.51l-7.85,5.78c-2.32,1.71-4.15,3.06-5.73,4.01-1.62.98-3.1,1.61-4.74,1.82-1.01.13-2.03.13-3.03,0-1.64-.21-3.11-.84-4.74-1.82-1.58-.95-3.41-2.3-5.73-4.01L.48,8.68Z"/>
      <path class="cls-2" d="M1.75,5.74l8.36,6.16c2.4,1.77,4.11,3.03,5.56,3.9,1.42.86,2.47,1.27,3.52,1.4.74.1,1.5.1,2.24,0,1.05-.13,2.1-.54,3.52-1.4,1.45-.87,3.16-2.13,5.56-3.9l8.36-6.16c-1.42-2.32-3.6-4.12-6.21-5.05-1.95-.69-4.37-.69-9.22-.69h-6.25c-4.85,0-7.27,0-9.22.69C5.36,1.62,3.17,3.41,1.75,5.74Z"/>
    </g>
  </g>
</svg>