<?xml version="1.0" encoding="UTF-8"?>
<svg id="Layer_2" xmlns="http://www.w3.org/2000/svg" viewBox="0 0 34.25 34.25">
  <defs>
    <style>
      .cls-1 {
        fill: #c1edd3;
      }

      .cls-1, .cls-2 {
        fill-rule: evenodd;
      }

      .cls-2 {
        fill: #09b850;
      }
    </style>
  </defs>
  <g id="Layer_1-2" data-name="Layer_1">
    <g>
      <path class="cls-2" d="M4.04,1.09c1.46-1.46,3.82-1.46,5.28,0,.11.11.21.22.3.34l3.84,4.94c.7.91.95,2.08.67,3.2l-1.17,4.69c-.12.49.02,1.02.38,1.38l5.26,5.26c.36.36.88.5,1.38.38l4.69-1.17c1.11-.28,2.29-.03,3.2.67l4.94,3.84c1.77,1.38,1.94,4,.35,5.59l-2.21,2.21c-1.58,1.58-3.95,2.28-6.16,1.5-5.65-1.99-10.78-5.22-15-9.46C5.54,20.24,2.3,15.11.32,9.46c-.77-2.2-.08-4.57,1.5-6.16l2.21-2.21Z"/>
      <path class="cls-1" d="M26.47,1.72c.42-.42,1.1-.42,1.51,0,0,0,0,0,0,0l5.35,5.35c.42.42.42,1.1,0,1.51,0,0,0,0,0,0l-5.35,5.35c-.42.42-1.1.42-1.52,0s-.42-1.1,0-1.52l3.53-3.52h-10.26c-.59,0-1.07-.48-1.07-1.07s.48-1.07,1.07-1.07h10.26l-3.53-3.52c-.42-.42-.42-1.1,0-1.51,0,0,0,0,0,0"/>
    </g>
  </g>
</svg>