<?xml version="1.0" encoding="UTF-8"?>
<svg id="Layer_2" xmlns="http://www.w3.org/2000/svg" viewBox="0 0 125.36 75.06">
  <g id="Layer_1-2" data-name="Layer_1">
    <g>
      <path d="M70.4,12.76v-.4s-.1,0,0,0c-.4.2-.8.3-1.1.4-.3.1-.5.7-1,.4s-.6.5-1,.3v-.5l-1.2,1v-.4s-.1,0-.1-.1c-.3.1-.6.7-1,.3-.3.2-.5.4-.8.6-.1.1-.3-.1-.5-.2-.3.2-.6.4-.9.6-.5-.5-.7.1-1,.2-.1.1-.3.2-.3.1-.5-.5-.7.1-1,.3-.2.1-.3.2-.5,0,0,0-.3,0-.4.1-.2.2-.4.3-.6.5-.7-.6-.9.4-1.3.3-.1-.1-.2-.2-.4-.3l-1.3,1.3v-.4c-1.1.1-2.1.6-3.2.9-.8.2-1.8.4-2.4,1.2,0,0-.1,0-.2.1v-.4c-.6.2-1.3.3-1.8.5-1.1.5-2.4.5-3.2,1.5h-.2v-.3c-.9.2-1.3.4-2,1v-.4c-1,.3-1.9.7-2.9,1l-.9.7h-.2v-.4c-.4.2-.8.5-1.1.5-.7-.2-.4.8-.9.6v-.4c-1.3.5-2.7.9-4,1.4-.2.1-.3.2-.4.4,0,.1-.2.2-.3.4v-.5c-.7.2-1.4.4-2.1.7-.1,0-.1.2-.2.4l-.4.4v-.5c-.7.2-1.4.4-2.1.7-.1,0-.1.3-.2.4l-.4.4v-.5c-.7.2-1.4.4-2.1.7-.1,0-.1.3-.2.4l-.4.4v-.6c-.6.3-1.2.5-1.8.8-.1,0-1.5.9-1.5.9h-.1v-.4c-1.4.5-2.9,1-4.3,1.5-2.2.8-4.5,1.7-6.7,2.5-1.5.6-3,1-4.5,1.6-1.1.4-2.2.7-3.4,1-.2.1-.5.1-.7.1h-.1c.2-.5-.3-.3-.4-.5-.3-.3,0-.5,0-.7-.2-.1-.4-.2-.6-.4.3-.2.4-.4.6-.5.2-.1.4-.1.6-.2-.4-.5-1,.3-1.3-.5.2-.1.5-.4.7-.5,2-.5,3.9-1.3,5.9-2.1,2.6-1,5.2-1.9,7.7-3,1.7-.7,3.5-1.3,5.2-1.9,1.4-.6,2.8-1.1,4.3-1.6,2.4-.8,4.7-1.9,7.1-2.6,1.6-.5,3.2-1.2,4.8-1.7,2.5-.9,5-1.8,7.5-2.6,1.4-.5,2.8-1,4.2-1.5,1.7-.5,3.3-1.3,5-1.8,2-.6,3.9-1.3,5.8-1.9,1.3-.4,2.7-.8,4-1.2,2-.7,4-1.3,6-1.9,1.1-.3,2.2-.7,3.3-.9,1-.3,2-.6,3-.9,1-.4,2.1-.6,3.2-.9,1.6-.5,3.3-.9,4.9-1.4,1.4-.4,2.9-.7,4.4-1.1,2.2-.6,4.4-.9,6.7-1.5,2.1-.5,4.1-.9,6.1-1.6.3-.1.8-.4,1.1.2-.2.2-.4.4-.6.5-.3.1-.6.1-.8.5.7-.2,1.2-.4,2-.6-.3.4-.4.7-.6,1.1.1.1.3.2.3.3-.1.4,0,.8-.1,1.2s-.5.4-.8.4c-.1,0-.1.2-.2.3,0,.1-.1.1-.2.1-.6,0-1,.1-1.3.6-.1.1-.2.1-.3.2v-.4c-.9.1-1.8.5-2.5,1.2-.1-.2-.1-.3-.1-.6-.6.3-1.2.7-1.7,1v-.4c-.7,0-1.2.5-1.7.9,0-.2-.1-.3-.1-.5-.7.3-1.5.6-2.2.9v-.4c-.8.4-1.6.7-2.3,1.1v-.4c-.8.4-1.6.7-2.3,1.1v-.4c-.8.4-1.6.7-2.3,1v-.4c-.8.4-1.6.7-2.3,1.1v-.4c-.6.3-1.2.6-1.8.9v-.5c-.4.3-.7.5-1.1.6-.4.2-.5-.3-.7-.1s-.4.4-.7.5c-.4.2-.7.3-1.1.4v-.4c-.6.3-1.2.6-1.8.9v-.4c-.6.3-1.2.6-1.8.9v-.5l-1.4,1.1Z"/>
      <path d="M52.9,70.96c3.7-2.9,4-3.1,4.3-3.3,4.2-3.4,8.4-6.8,12.5-10.2.4-.3.6-.8,1.2-.7.1-.5.5-.7.8-.9s.7-.3.9-.6c.2-.2.5-.3.6-.6,1.9-.9,3.2-2.4,4.8-3.6,1.6-1.2,3.2-2.6,4.8-3.9.2-.2.4-.5.8-.4,0-.4.3-.5.5-.7s.4-.4.8-.4c0-.5.4-.6.7-.8.2-.1.5-.1.6-.2.1-.1.1-.4.4-.3.1,0,.3-.3.4-.4.1-.1.2-.4.2-.4.5.1.8-.4,1.1-.6,1.3-1,2.5-2.1,3.8-3.1.2-.2.5-.3.6-.6.2-.3.6,0,.7-.5,0-.2.4-.4.6-.6,1.8-.9,3.2-2.4,4.8-3.6.2-.2.7,0,.6-.5.5.2.3-.3.5-.4,1.6-.7,2.6-2.2,4.1-3,1.6-.9,2.7-2.3,4.3-3.2,1.3-.7,2.3-1.7,3.5-2.6.1-.1.2-.2.3-.4-.1.1-.2.1-.3.2-.6.5-1.2,1.2-1.9,1.5-.8.3-1.2.9-1.8,1.3-.7.5-1.2,1.2-1.9,1.5-1.5.8-2.6,2.2-4.1,3-1.8,1.1-3.2,2.7-5,3.8-2,1.2-3.5,2.9-5.4,4.1-2.6,1.6-4.7,3.7-7.1,5.5-.3.2-.7.4-.9.7-.2.2-.6.4-.9.5s-.6.4-.7.6c-.1.3-.2.4-.5.4-.1,0-.1.1-.2.1-.4.1-.4.7-.9.8-.3.1-.7.3-.7.9-.3-.2-.3.3-.5.3-.6.2-1,.6-1.4,1.1-.2.2-.4.6-.6.7-.9.3-1.4,1-2.2,1.5-.4.2-.6.7-1.1.6-.1,0-.2.2-.2.2,0,.5-.4.6-.7.8-4.5,3.7-9,7.4-13.5,11-.3.2-.5.6-1,.5-.1,0-.3.2-.4.3-.1.1-1.2.9-1.3,1.1-.3.3-.5.6-.7,1q.1-.2-3.3,2.5c-1.5,1.1.3-.4,2.2-1.9.1-.1.3-.3.4-.3.4.1.4-.3.5-.4s.1-.2.1-.2h-.2c-1.4,1.1-2.8,2.2-4.2,3.4-.7.6-1.5.9-2.2,1.4-.1,0-.3-.2-.4-.3,1.4-1.2,2.8-2.2,4.1-3.4.4-.4,1.2-.3,1.3-1,1.1-.3,1.8-1.2,2.6-1.9,6.2-5.1,12.4-10.1,18.6-15.2.3-.3.7-.7,1.1-.8s.4-.7,1-.6c.1,0,.3-.4.5-.6.1-.1.2-.2.3-.4.2-.2.7.1.7-.5,0-.4.7,0,.7-.6,0-.1.4-.4.6-.4.5.1.2-.6.5-.5.5.1.7-.3,1-.5.8-.6,1.6-1.3,2.4-1.9.3-.2.8-.3.9-.5.1-.5.5-.6.8-.9.2-.2.5-.4.8-.6l.7-.5.8-.6.8-.6.7-.5c.3-.2.5-.4.8-.6.2-.2.7-.2.7-.4.1-.3.6-.2.5-.6.3.1.5-.1.7-.3.3-.2.5-.4.8-.6,2.1-1.6,4-3.5,6.3-4.9,1.7-1.1,3.1-2.6,4.8-3.6,1.4-.8,2.4-2.2,4-2.9.8-.4,1.4-1.1,2.1-1.7s1.5-.8,2.2-1.4c.5-.5,1-1,1.8-1.2.5-.2.9-.7,1.3-1,.5-.3,1-.6,1.5-.9.6-.4,1.1-1.1,1.9-1.2.9-.8,2.1-1.3,3.1-1.9.6-.4,1.2-.5,1.9-.4.1,0,.1.1.2.2v.7c.6.3.9.9.7,1.5-.1.3-.2.5-.1.9s-.3.8-.1,1.2c0,.1-.4.3-.6.5-.6-.4-1.1-.2-1.6.1-.5.3-1,.7-1.6,1-1,.6-2,1.3-2.9,2-.5.4-1,.8-1.4,1.2h-.2c.2-.3.4-.5.7-.7-.5.2-1,.4-1.1.7-.1.6-.8.5-.8.8,0,.5-.8.1-.6.6-.3.3-.6.5-.9.8,0,0-.1,0-.2-.1.1-.2.3-.4.4-.6-.5.2-1,.5-1.3.9-.6,1-1.5,1.4-2.4,1.9.2-.2.5-.5.7-.7-.2,0-.3,0-.4.1-.6.4-.9,1-1.4,1.4-.7.6-1.4,1.2-2.1,1.7,0,0-.1,0-.2-.1.2-.2.4-.5.6-.7-.6.3-1.1.8-1.6,1.1-.3.2-.6.2-.7.6-.1.4-.5.3-.8.1,0,.3.1.6.1.9-.2-.1-.3-.2-.5-.3-.9.7-1.8,1.5-2.7,2.2-.3.2-.6.4-1.1.6,0,1.1-1.1,1.3-1.8,1.8.3-.3.6-.6.8-.8-.6.3-1.1.7-1.6,1.1-.6.4-1.1,1.1-1.9,1.2-.3.1-.6.4-.5.9q0,.1-.1.2c-.1-.1-.3-.2-.4-.3l-1,.8c-.2-.1-.4-.4-.6-.1,0,0,.2.2.3.4-.9.5-1.4,1.4-2.4,1.7-.5.8-1.3,1.4-2.2,1.8v.6c-.9-.3-1.3.6-1.7.8h-.8c0,.2,0,.4.1.6-.9.7-1.7,1.4-2.6,2.1-.2.2-.6.2-.7.4-.2.3-.3.5-.7.5-.2.1-.3.5-.6.6-.1.1-.4.1-.6.1-.1,0-.3-.1-.4-.2,0,0-.1.1-.2.1v.2c.3,0,.4.1.3.3s-.2.4-.3.4c-.4,0-.6.1-.7.6-.1.3-.8.1-.8.7l-.1.1c-.5-.1-.8.3-1.1.6-3,2.4-6,4.9-8.9,7.3-.2.2-.4.5-.7.5-.7.1-1.1.4-1.1,1.2,0,.1-.1.1-.1.2-.3.3-.7.6-1,.9-.3.3-.7.5-1,.8l-.1-.1c.2-.2.4-.5.7-.8h-.2c-.3.3-.6.5-1,.8-.3.3-.6.5-.9.8l-1,.9c-.3.3-.6.7-1,.7-.5.1-.5.5-.8.7-.9.7-1.8,1.3-2.7,1.9-1.2.7-2.2,1.7-3.2,2.6s-2.3,1.4-3.3,2.4h-.2v-.3c-.3,0-.6,0-1,.1.3-.4.4-.7.6-1-1.1-.4-1.3.4,1.6-2.9"/>
      <path d="M84.4,23.46c.4-.1.6-.2.8-.2.6-.3,1.2-.5,1.7-1.1.5.2.6-.4,1.1-.4s.7-.4,1-.6c.5-.3,1.1-.4,1.6-.7.8-.5,1.7-.8,2.5-1.3.5-.3,1-.5,1.5-.8.8-.4,1.7-.7,2.5-1.2.7-.5,1.6-.8,2.4-1.2.6-.3,1.4-.5,2-.8,1.3-.8,2.8-1.2,4.1-1.7.4.3.7.5,1.1.8-.3.5-.2,1.1-.4,1.8-.2.1-.5.3-.8.3-.5,0-1-.1-1.3.4-1.7.4-3,1.4-4.6,1.9-.9.3-1.8.7-2.6,1.2-.9.6-1.9.6-2.7,1.4-1.7.6-3.2,1.6-4.8,2.4-.7-.1-1.1.7-1.7.9-.8.2-1.4,1.1-2.4,1v.1c-.4.5-1.1.6-1.6,1.1-.4,0-.6.1-.8,0-.2,0-.5-.4-.6-.1s-.3.3-.5.5-.4.5-.6.7c-.4.2-.9.4-1.3.4-.5,0-.4.4-.7.7-.3,0-.7-.1-1.1-.1-.5.5-.9,1-1.4,1.5v-.5c-.6.1-.7.6-.9,1-.2-.1-.3-.2-.5-.3.1.6-.7.4-.8.8-.2-.1-.3-.3-.5-.4-.1.2-.2.4-.3.5-.4.4-1.1.5-1.4,1.1,0,0-.3.1-.4,0-.3-.2-.4.2-.6.2-.3-.1-.3.3-.5.3l-.5-.6c.7-1,1.9-1.2,2.7-1.9.7,0,.9-.5,1.3-.9-.5.2-1.1.5-1.6.7,0-.1-.1-.1-.1-.2,1.1-.6,2.1-1.2,3.2-1.9l.1.1c-.4.4-.9.8-1.3,1.2.8-.4,1.6-.7,2.3-1.1.8-.4,1.5-1,2.2-1.5-.4,0-.8.2-1.2.4-.4.2-.6.8-1.3.4.3-.3.6-.7.9-.7.5,0,.7-.5,1.1-.5.5,0,.7-.5,1.1-.7.2-.1.5-.2.7-.3.1,0,.3.1.4.2-.7.1-1,.6-1.3,1.1.6-.6,1.6-.5,2-1.3-.2-.2-.6.4-.7-.3.3-.1.6-.3.9-.4.6-.3,1.1-.7,1.7-1.1.3-.1.6-.2.9-.3.1,0,.2.1.3.2-.1.1-.2.2-.2.3-.1.1-.1.2-.2.3,0,0,.1,0,.1.1l.9-.7c-.3,0-.5,0-.9-.2"/>
    </g>
  </g>
</svg>