<?xml version="1.0" encoding="UTF-8"?>
<svg xmlns="http://www.w3.org/2000/svg" version="1.1" viewBox="0 0 16 16">
  <defs>
    <style>
      .cls-1 {
        fill: #09b850;
      }
    </style>
  </defs>
  <!-- Generator: Adobe Illustrator 28.7.1, SVG Export Plug-In . SVG Version: 1.2.0 Build 142)  -->
  <g>
    <g id="Layer_1">
      <path class="cls-1" d="M1.5,2c-.8,0-1.5.7-1.5,1.5v2h6c.3,0,.5.2.5.5s0,.6.3,1c.2.3.6.5,1.2.5s1-.3,1.2-.5c.2-.3.3-.7.3-1s.2-.5.5-.5h6v-2c0-.8-.7-1.5-1.5-1.5H1.5Z"/>
      <path class="cls-1" d="M16,6.5h-5.6c0,.4-.2.7-.4,1-.4.5-1,1-2,1s-1.6-.4-2-1c-.2-.3-.4-.7-.4-1H0v6c0,.8.7,1.5,1.5,1.5h13c.8,0,1.5-.7,1.5-1.5v-6Z"/>
    </g>
  </g>
</svg>