<?xml version="1.0" encoding="UTF-8"?>
<svg id="Layer_2" data-name="Layer 2" xmlns="http://www.w3.org/2000/svg" xmlns:xlink="http://www.w3.org/1999/xlink" viewBox="0 0 269.69 43">
  <defs>
    <style>
      .cls-1 {
        fill-rule: evenodd;
      }

      .cls-1, .cls-2, .cls-3, .cls-4 {
        stroke-width: 0px;
      }

      .cls-1, .cls-4 {
        fill: #22c55e;
      }

      .cls-2 {
        fill: none;
      }

      .cls-3 {
        fill: #fff;
      }

      .cls-5 {
        clip-path: url(#clippath);
      }
    </style>
    <clipPath id="clippath">
      <circle class="cls-2" cx="21.5" cy="21.5" r="21.5"/>
    </clipPath>
  </defs>
  <g id="Layer_1-2" data-name="Layer 1">
    <g>
      <g class="cls-5">
        <g>
          <rect class="cls-3" x="-6.17" y="-.08" width="69.87" height="53.38"/>
          <path class="cls-1" d="M27.35,36.06l-3.57-2.88-3.56,2.88,1.64-4.28-3.85-2.5,4.58.24,1.19-4.43,1.19,4.43,4.58-.24-3.85,2.5,1.65,4.28ZM14.67-2.08c5.91,6.39,8.87,14.53,8.89,22.67-1.06-5.34-3.66-10.43-7.8-14.56C11.14,1.41,5.33-1.29-.68-2.08h-7.48s0,0-16.83,0v53.38H61.7V-2.08H14.67Z"/>
        </g>
      </g>
      <g>
        <path class="cls-3" d="M54.87,31.31h-4.53l5.89-17.45h5.62l5.89,17.45h-4.53l-4.1-13.06h-.14l-4.09,13.06ZM54.26,24.44h9.48v3.2h-9.48v-3.2Z"/>
        <path class="cls-3" d="M84.47,13.85v17.45h-3.58l-6.95-10.07h-.11v10.07h-4.22V13.85h3.63l6.87,10.06h.14v-10.06h4.21Z"/>
        <path class="cls-3" d="M87.11,31.31V13.85h4.22v7.38h.23l5.77-7.38h4.97l-6.19,7.79,6.3,9.66h-5.05l-4.35-6.86-1.69,2.13v4.73h-4.22Z"/>
        <path class="cls-3" d="M107.73,31.31h-4.53l5.89-17.45h5.62l5.89,17.45h-4.53l-4.1-13.06h-.14l-4.09,13.06ZM107.13,24.44h9.48v3.2h-9.48v-3.2Z"/>
        <path class="cls-3" d="M122.48,31.31V13.85h7.21c1.31,0,2.44.23,3.39.7s1.69,1.14,2.2,2.01c.52.87.78,1.9.78,3.1s-.26,2.24-.79,3.08c-.53.84-1.28,1.49-2.25,1.93-.97.44-2.12.66-3.45.66h-4.56v-3.32h3.78c.64,0,1.17-.08,1.6-.25.43-.17.75-.42.98-.77.22-.34.33-.79.33-1.33s-.11-.99-.33-1.34c-.22-.35-.55-.62-.98-.8-.43-.18-.96-.27-1.59-.27h-2.08v14.05h-4.22ZM132.31,23.33l4.35,7.98h-4.6l-4.26-7.98h4.52Z"/>
        <path class="cls-3" d="M142.14,31.31h-4.53l5.89-17.45h5.62l5.89,17.45h-4.53l-4.1-13.06h-.14l-4.09,13.06ZM141.54,24.44h9.48v3.2h-9.48v-3.2Z"/>
        <path class="cls-3" d="M162.05,31.31V13.85h4.22v7.38h.23l5.77-7.38h4.97l-6.19,7.79,6.3,9.66h-5.05l-4.35-6.86-1.69,2.13v4.73h-4.22Z"/>
        <path class="cls-3" d="M189.46,13.85h4.21v11.26c0,1.3-.31,2.43-.93,3.4-.62.96-1.48,1.71-2.59,2.23-1.11.53-2.4.79-3.86.79s-2.78-.26-3.89-.79c-1.11-.53-1.97-1.27-2.58-2.23-.61-.96-.92-2.1-.92-3.4v-11.26h4.22v10.89c0,.6.13,1.14.4,1.61s.64.84,1.11,1.11,1.03.4,1.66.4,1.18-.13,1.66-.4c.47-.27.84-.64,1.11-1.11.27-.47.4-1.01.4-1.61v-10.89Z"/>
        <path class="cls-3" d="M196.31,31.31V13.85h7.21c1.31,0,2.44.23,3.39.7s1.69,1.14,2.2,2.01c.52.87.78,1.9.78,3.1s-.26,2.24-.79,3.08c-.53.84-1.28,1.49-2.25,1.93-.97.44-2.12.66-3.45.66h-4.56v-3.32h3.78c.64,0,1.17-.08,1.6-.25.43-.17.75-.42.98-.77.22-.34.33-.79.33-1.33s-.11-.99-.33-1.34c-.22-.35-.55-.62-.98-.8-.43-.18-.96-.27-1.59-.27h-2.08v14.05h-4.22ZM206.14,23.33l4.35,7.98h-4.6l-4.26-7.98h4.52Z"/>
        <path class="cls-3" d="M212.2,31.31V13.85h7.28c1.31,0,2.4.18,3.29.55.88.37,1.55.89,1.99,1.55.45.67.67,1.44.67,2.31,0,.66-.14,1.26-.42,1.78s-.66.95-1.15,1.29c-.49.34-1.05.58-1.7.72v.17c.7.03,1.36.22,1.96.57s1.08.83,1.44,1.44c.36.62.55,1.35.55,2.19,0,.94-.24,1.77-.72,2.51s-1.17,1.32-2.07,1.74c-.9.42-2,.63-3.29.63h-7.83ZM216.42,21.03h2.34c.46,0,.87-.08,1.23-.23.36-.15.64-.38.84-.67.2-.29.3-.64.3-1.05,0-.58-.21-1.05-.62-1.38-.41-.34-.97-.5-1.68-.5h-2.4v3.83ZM216.42,27.91h2.61c.91,0,1.59-.17,2.02-.52s.65-.83.65-1.45c0-.45-.11-.84-.32-1.16s-.51-.58-.9-.76c-.39-.18-.85-.27-1.39-.27h-2.68v4.16Z"/>
        <path class="cls-3" d="M231.91,31.31h-4.53l5.89-17.45h5.62l5.89,17.45h-4.53l-4.1-13.06h-.14l-4.09,13.06ZM231.3,24.44h9.48v3.2h-9.48v-3.2Z"/>
        <path class="cls-3" d="M261.51,13.85v17.45h-3.58l-6.95-10.07h-.11v10.07h-4.22V13.85h3.63l6.87,10.06h.14v-10.06h4.21Z"/>
        <path class="cls-4" d="M267.11,31.6c-.72,0-1.33-.25-1.83-.76-.51-.5-.76-1.11-.75-1.83,0-.7.24-1.3.75-1.8.51-.5,1.12-.75,1.83-.75.68,0,1.27.25,1.79.75.52.5.78,1.1.79,1.8,0,.48-.13.91-.37,1.3-.24.39-.56.7-.94.93-.39.23-.81.35-1.27.35Z"/>
      </g>
    </g>
  </g>
</svg>