<?xml version="1.0" encoding="UTF-8"?>
<svg id="Layer_2" xmlns="http://www.w3.org/2000/svg" viewBox="0 0 105.24 94.99">
  <defs>
    <style>
      .cls-1 {
        fill: #09b850;
      }
    </style>
  </defs>
  <g id="Layer_1-2" data-name="Layer_1">
    <g>
      <path class="cls-1" d="M104.74,49.3c0,.1-.1.4-.3.7.1.1.2.1.4.2.1.3.5.6.3,1s.4.7-.1,1c.1.7-.4,1.3-.8,1.8-.3.5-.4,1.1-.9,1.5-.4.4-.6.9-1,1.4h-.9c.1.2.1.4.2.6-.1.1-.2.3-.4.5.1.3.2.6.3,1-.2.2-.3.4-.5.6.1,0,.3.1.5.2-.3.2-.5.3-.7.5,0,.1.1.1.2.2-.7.3-1.4-.4-2.2-.1-.5.4-.9,1.1-1.6,1.4-.3.1,0,.6-.5.6-.2,0,0,.6-.5.4-.2.5-.6.7-1,1.1-.3.3-.6.6-.8,1-.2.3-.4.6-.6.9s-.4.5-.6.8c-.1.2-.1.6-.3.8-.2.1-.4.3-.5.6-.2-.1-.4-.2-.5-.3-.5.2-.9.4-1.4-.1v-1.2c-.9-.5-1.8-.9-2.2-2.1,0-.4-.1-.9.2-1.3-.5-1-.1-1.9.4-2.8.6-1.1,1.4-1.9,2.3-2.8-.5-.8-1.1-1.6-1.6-2.4-.3-.6-.7-1.2-.7-1.8,0-.7-.2-1.4.2-2.1.2-.3,0-.8.2-1.2.1-.2.2-.5.4-.7.1-.1.1-.3.2-.7.2-.2.7-.4.7-.7.1-.5.8-.3.8-.9.2.1.2.2.3.3.3-.1.6-.2.9-.3.1.2.2.4.3.6-.2.4-.5.9-.8,1.4.6-.1,1-.1,1.4-.1q.2.2.3.3c-.2.3-.3.6-.5,1,.4,0,.6.1,1,.1-.1.4-.2.8-.3,1.2-.1.1-.3.3-.5.4.1.1.1.2.2.2.1-.1.3-.2.5-.3.1.2.1.3.1.4-.3.2-.6.3-1,.5.2.1.3.1.5.2-.3.3-.5.5-.8.8.4.3.7.6,1.1.9.6.1,1-.1,1.4-.5,1-.9,2.1-1.6,3.1-2.5s2.1-1.8,2.8-3c.2-.3.5-.5.7-.7h1.2c.1.1.2.2.3.4-.1.4-.3.8-.4,1.2.4-.1.7-.2,1-.3.2-.2.3-.1.5.2"/>
      <path class="cls-1" d="M33.04,73.1c-.4.1-.7.2-1.1.3.1-.2.2-.3.2-.5-.3-.4-.6-.7-1.1-.7,0-.2-.1-.3-.1-.4h-.9c-.1-.1-.2-.1-.2-.2-.1-.4-.2-.9-.4-1.3-.3-.4-.2-.9-.2-1.3,0-.3.1-.7.2-1,.3-1.2.8-2.4,1.4-3.5.4-.7.8-1.3,1.2-2,.4-.6,1-1.2,1.4-1.8-.1-.1-.3-.2-.4-.3-1.5-.9-2.8-2-4-3.2-.6-.6-.6-1.4-.7-2.1-.1-.3,0-.6,0-.9.3-.6.9-.6,1.5-.9.2.4.4.7.6,1.1,0,0,.1-.1.2-.2.1.1.2.2.3.3.2.7.8,1,1.4,1.3,1.2.6,2.4,1.2,3.7,1.8.3-.3.6-.8,1-1s.4-.9,1-.8c-.1-.1-.2-.2-.2-.3.2-.1.4-.3.7-.5.1-.2.2-.5.3-.8h.6l-.3-.3c.5-.1.5-.6.8-.8.3-.3.5-.7.8-1.1.1,0,.1.1.3.2.1-.1.1-.3.2-.4.1.1.2.1.3.2.1-.8.6-1.4,1.1-2s.9-1.3,1.7-1.7c.1.1.2.2.4.3-.3.6-.6,1.2-1.3,1.5v.9c.2,0,.3,0,.3-.1.1-.2.2-.5.3-.6.5-.4,1-.8,1.5-1.3,0,.4.1.7.1,1-.2.1-.3.1-.4.2l.1.1c.3-.1.5-.1.9-.2.1.2.2.4.3.6-.1.1-.1.2-.2.2,0,.3.4.6.1,1l-.2-.2c0,.1-.1.1-.1.2s.1.3.2.4c-.1.6-.5,1-.9,1.3-.4.4-.8.7-1.4,1.1.2.1.4.2.6.3-.1.2-.2.4-.3.6,0,.1.1.1.2.3-.2,0-.5.1-.7.1.1.2.1.4.2.6h-.8c-.1.3-.3.5-.4.8l.3.3c-.2,0-.4.1-.7.1.1.2.1.4.2.6-.2,0-.4.1-.7.1.1.2.1.4.3.7-.3-.1-.5-.2-.8-.3-.1.2-.2.5-.4.7,0,.1.1.2.1.2.1,0,.2,0,.3.1.3.2.4.6.8.8.4.2.5.6.8.9.2.3.4.5.3.9,0,.1.1.3.2.4-.1.1-.1.2-.3.4-.3,0-.5.4-1.1.2-1-.4-2-.7-3-.8-.1,0-.1-.1-.2-.2-.3.3-.6.7-1,1.1v.4c-.2,0-.4.1-.7.1.2.3.4.5.6.9-.3-.1-.4-.1-.7-.2,0,.1-.1.2-.2.3.1.4,0,.6-.4.8-.1.5-.2.9-.4,1.3-.2.1-.3.1-.4.2l.3.5c-.3.3-.7.5-1,.8-.2.3-.3.7-.5,1.1,0,0,.1.1.2.3-.2.3-.5.5-.7.8.1.1.2.2.3.3-.2.2-.3.4-.5.6v.7c-.4.1-.6.4-.8.6"/>
      <path class="cls-1" d="M60.74,77.6q.5.6,1.2.3c0,.2,0,.4.1.5,0,.1.1.2.2.3-.1.1-.2.2-.2.2.2.1.3.1.6.3-.3.4-.5.7-.7,1.1.3.6-.3.7-.4,1-.1.5-.7.6-.7,1.1,0,.6-.6.6-.9,1-.2.3-.6.5-.7.9.1.2.2.3.3.5-.3.2-.6.4-.9.5l-.7.3c-.2.3-.4.5-.7.8v.2c-.7.5-1.4,1-2.2,1.6.2.1.4.2.6.3-.3.4-.6.9-1,1.3.9.3,1.7.6,2.5.9-.1.2-.2.3-.2.5.4.1.7.3,1.1.4v.5c.3.2.5.4.7.6v.8l.4.4-1,.9c-.2.3-.5.2-.8,0-.1-.1-.2-.1-.3-.1-1.2,0-2.2-.4-3.3-.8-.8-.3-1.5-.7-2.3-1-.2.2-.6.4-.6.8-.5.1-.9.2-1.4.3-.2-.2-.4-.4-.6-.6.1-.1.1-.2.3-.3-.1-.2-.2-.5-.3-.6-.3.1-.7.1-1,.1-.2-.3-.3-.6-.5-.9l-.1.1c-.2-.3-.5-.5-.8-.9.1-.8-.4-1.7-.3-2.7,0-.2-.1-.5-.3-.7-.7-.6-.7-1.5-1-2.3-.1-.3-.2-.7-.3-1,0-.6-.1-1.1,0-1.7.2-.9.3-1.8,1.3-2.1.3-.1.7-.1,1.1-.2v1.8c.4-.2.6-.4,1-.7.1.2.1.3.2.5.1,0,.1-.1.2-.1v1c.2-.1.3-.2.5-.2.5.4.5,1,.4,1.5.2.1.3.1.5.2-.1.2-.2.5-.3.8h.2c.1-.1.1-.2.2-.2,1-.4,1.5-1.4,2.4-1.7.2-.7.9-.9,1.4-1.3.4-.5,1.1-.8,1.6-1.2.5-.4.8-1.1,1.5-1.3.4-.8,1.1-1.4,1.9-1.9,0-.6.7-.6.7-1.2h1c.1.1.2.2.3.3-.5.2-.7.7-1,1.2.7.1,1.1-.7,1.7-.3-.2,0-.3.1-.6.2"/>
      <path class="cls-1" d="M58.14,65.6c-.1-.5.7-.6.3-1.1-.1.1-.2.2-.2.2l-.1-.1c-.1-.6-.1-1.1.3-1.5.4-.5.9-1,1.3-1.5.1-.2.2-.4.3-.6-.2-.5-.5-1.1-.7-1.6-.3-.6-.3-1.2-.5-1.8-.2-.3.2-.9.2-1.2-.1-.4-.4-.8,0-1.2,0-1.1.8-1.8,1.4-2.6h1.9l.4.4c-.3.4-.6.7-.9,1.1,0,.1.1.3.2.5.1,0,.3.1.4,0,.3-.3.7-.2,1-.2.1.3.2.5.3.7-.2.2-.3.4-.6.8.4.1.7.1,1,.1v1.1c.8,0,.8-.9,1.5-.9.3-.4.7-.8,1.1-1.1.4-.4.9-.8,1.3-1.3.4-.4.8-.8,1.1-1.2.4-.4.7-.9.9-1.2.5-.2.7-.3,1.1-.4.1.2.3.3.3.5,0,.1-.1.3-.2.5s-.2.3-.2.6c.3-.1.7-.3,1-.4.2.4.4.8.7,1.4v.4c0,.2.1.3.2.5,0,.1-.1.2-.2.4.1.1.2.2.3.3-.7,1-1.2,2.1-2,3.1-.6.9-.5.9-1,1.2.1.1.1.2.2.2-.9,1-1.8,2-2.7,3v.4c.7.5,1.4.9,2.1,1.3-.1.2-.2.3-.3.5.3.2.5.7,1,.5.1.2.2.4.3.6-.1.1-.1.2-.3.4l.8.8c-.1.3-.2.5-.3.8.1.1.2.3.2.4s-.1.2-.1.2c-.1.1-.3.1-.4.2-.5.5-.6.6-1.2.4-.8-.3-1.6-.4-2.4-.8-1-.5-1.8-1.2-2.8-1.9-.4.3-.9.7-1.3,1.2-.4.5-1,.8-1.8,1.1.1-.2.2-.3.3-.5-.5.1-.9.2-1.3.3l-.1-.1c.3-.2.5-.4.8-.6l-.4-.4h-.8c-.1-.3-.2-.5-.4-.9h-.9c.1-.5,0-.8-.1-1"/>
      <path class="cls-1" d="M63.04,43.5c-.4.1-.7.2-1.2.3-.5-.4-1.1-.8-1.7-1.2-.7-.5-1.4-1.2-2.2-1.5-.2-.1-.4-.1-.7-.2-.3-.5-.4-1.4-1.3-1.3-.4-.4-.5-1.1-1.1-1.1-.2-.4-.3-.8-.6-1-1.2-1.1-2.1-2.5-2.9-4.2-.1-.5-.1-1.2-.2-1.9-.2-1.1.4-2,1.3-2.6.3-.2.4-.5.8-.5.3,0,.6-.1,1-.2.1.1.3.2.5.4-.3.5-.9.9-1,1.6.7.2,1-.6,1.7-.6.1.1.2.2.4.3-.3.4-.4.6-.7,1.1.5-.2.8-.2,1-.3.3-.4.8-.6,1.2-1.1.3-.4.7-.8,1.2-1.1.7-.4,1.2-1.1,1.8-1.6.9-.7,1.8-1.6,2.8-2.2.4-.2.7-.7,1-1,.3-.3.8-.5.9-.9h1.5v1s-.2.2-.4.4c.2,0,.4-.1.6-.1s.4-.1.7-.2c0,.7,0,1.4.5,1.8-.1.1-.2.2-.3.4.2.1.3.2.7.4-.4.1-.5.1-.6.2.1.1.1.3.2.4v.4c-.4.6-.8,1.1-1.3,1.8-.1,0-.3,0-.5.1.1.1.1.2.2.3-.1.2-.1.3-.2.5-1,0-1,1-1.6,1.4.1.2.2.3.2.3-.4.4-.8.8-1.2,1.2h0l-.6.6c-.1,0-.1-.1-.2-.1v.4c-.1-.1-.2-.2-.4-.3,0,.3.1.4.1.7-.3.4-.6.8-1,1.3-.2-.1-.3-.2-.4-.3-.4.5-.8,1-1.2,1.5.2.1.3.2.5.3-.2.3-.4.5-.5.7,0,.1,0,.2.1.2.7.8,1.5,1.5,2,2.3.7.9,1.5,1.9,1.1,3.2"/>
      <path class="cls-1" d="M78.74,27.2l.2-.2c0-.1-.1-.1-.1-.2-.3-.3-.7-.5-.9-.8-.2-.3-.5-.5-.7-.7-.3-.3-.7-.8-.7-1.2,0-.7-.1-1.4.1-2.2.3-1.3,1-2.3,1.9-3.2,1.1-1.1,2.3-2.3,3.5-3.5-.5-.4-.5-1.1-1.2-1.3-.3-.6-.6-1.2-.9-1.8-.3-.5-.2-1.1-.2-1.7v-1.2c.4-.5.8-1,1.1-1.4h1.9c-.3.5-.6,1-.8,1.4.7.5,1-.6,1.6-.3.4.5-.3.8-.6,1.3.4-.1.7-.2,1-.2.2.5.1,1-.2,1.5.2.1.3.1.5.2.1.1-.1.2-.2.4.2.3.4.6.7,1,1.9-2,4.2-3.3,5.7-5.5h1.1c-.1.4-.2.7-.3,1.1.3-.1.6-.2.9-.3v.9c.2,0,.3.1.4.1,0,.1.1.1.1.2v.3c.2,1.2-.4,2.1-1,3-.7,1-1.4,1.8-2.2,2.8.6.7,1.4,1,2.2,1.6,0,.1,0,.3.1.5.2.3.5.5.6.8.2.7.7,1.4.4,2.3-.1,0-.3.1-.5.2s-.4.2-.6.2c-.3-.3-1-.2-.9-.8-.7-.2-1.3-.4-1.9-.5-.1-.2-.3-.4-.4-.7h-1.2c0-.1-.1-.2-.1-.4-.5-.4-.8.1-1.1.1-.4.4-.7.8-1,1.1-.1-.1-.2-.1-.3-.2-.1.2-.3.4-.5.6l.1.2c-.5.1-.6.7-.8,1.1-.2-.1-.3-.2-.5-.3,0,.2-.1.4-.1.6-.1,0-.2,0-.4.1,0,.5-.1,1-.8.9-.2.3-.6.6-.6.8.1.7-.5,1-.7,1.6q-.1.7.1,1.1c-.5.4-1,.7-1.7.8.1,0,0-.1-.1-.2"/>
      <path class="cls-1" d="M12.64,14.4c-.3,0-.5.1-.7.1.1.1.2.2.3.4-.3.5-.8.8-1.2,1.3l.2.2c-.3.2-.6.5-.8.6-.1.4.2.8-.3,1,.4.3.8.5,1.2.8,1.2.8,2.5,1.5,3.4,2.6.6.6,1.1,1.2,1.1,2.1,0,.2.2.3.3.5-.3.2-.7.4-1.1.7-2.3-1.3-4.6-2.5-6.7-4.2-.2.1-.5.2-.5.3-.2.7-.7,1.2-1.2,1.6-.1.1,0,.2-.1.3-.2,0-.4,0-.7.1.2.2.2.3.3.6-.4.4-.8.9-.9,1.6-.1.4-.5.7-.8,1.2v2.5h-.6c0,.1-.1.3-.1.4h-.9c-.1-.4-.2-.7-.4-1.1-.2.1-.4.2-.7.3-.1-.2-.1-.3-.1-.4-.1,0-.1-.1-.2-.1-.5.1-.8-.3-.9-.6-.2-1-.9-2.1-.3-3.2,0-1.1.7-2,1.1-2.9.1-.3.7-.3.5-.8-.1-.2.3-.6.5-.9s.4-.5.6-.8c.2-.3.5-.5.8-.8.2-.2.4-.5.6-.8-1.4-1-2.2-2.5-3.2-3.9-.3-1.3-.8-2.6-.6-4.2.3-.4.7-.8,1.2-1.3.5.1,1-.2,1.5.3-.3.4-.6.8-.9,1.2.1.1.2.2.2.2.6.2.9-.7,1.5-.5l.3.6c-.2.1-.4.3-.7.4.2.1.3.2.4.3.3-.3.6-.3,1,.1,0,.3.2.6-.2.9.2.1.3.1.5.3-.2.2-.3.5-.5.7.2.1.3.1.6.2-.3.1-.4.1-.6.2,0,.2,0,.4.1.6.4.6.9,1.1,1.4,1.8.3-.3.5-.4.7-.6,1.2-1.2,2.3-2.5,3.8-3.4,0-.4.4-.4.6-.6.2-.3.5-.5.6-.7h.8c-.3.5-.9.8-.7,1.5.5-.3,1-.6,1.6-.9-.1.3-.1.6-.1.9.2.1.5.3.8.4-.1.2-.2.3-.2.5.1,0,.2,0,.3.1,0,0,.1.1,0,.1-.3.4-.6.7-.8,1.1-.3.4-.8.7-1.1,1.1"/>
      <path class="cls-1" d="M33.34,25.9c.9-1.1,1.7-2,2.4-3,.7-.9,1.3-1.8,1.9-2.8-.1-.1-.1-.2-.3-.3.2-.2.4-.4.6-.7h.7c.3.3.5.7.8.8.4.1.4.4.6.7.5.8.9,1.6.5,2.7-.3.6-.5,1.3-.8,1.9-.1.2-.1.4-.2.7l-.6.6v.7c-.4.8-.8,1.5-1.2,2.2.6.4,1.1.8,1.6,1.1,1.1.7,1.9,1.5,2.5,2.7.1.3.2.5.3.9,0,.1-.1.3-.2.5-.2.1-.5.2-.7.3-.5-.2-1-.3-1.4-.5s-.9-.4-1.3-.6c-.1-.7-.8-.4-1.1-.8-.3-.4-.8-.5-1.3-.8-1.5,1.5-2.8,3.1-4,4.9-.1.1-.1.3-.1.5-.5.4-1,.3-1.5,0v-.4c-.7-.4-1.3-.8-2-1.2-.3-.4-.2-1-.4-1.5-.2-.5,0-1-.1-1.4.7-1.7,1.6-3.1,2.9-4.4v-.8c-.7-.5-1.2-1.3-1.6-2.1-.2-.3-.2-.6-.2-.9-.1-.6-.4-1.2-.3-1.9,0-1.3.8-2.2,2-2.6.8-.3,1.5-.1,2.3-.2-.4.9-1.5.8-2.1,1.6,1.1,0,1.7-1.1,2.8-.9,0,.3-.1.5-.1.8.2.1.5.2.8.3v1.4c-.3.5-.6,1-.9,1.5-.4.3-.3.6-.3,1"/>
      <path class="cls-1" d="M52.34,11.9c-.4.5-.8,1-1.2,1.6v1.4c-.4.2-.8.3-1.2.5-.5-.5-.7-1.2-.9-1.8-.2.1-.4.2-.7.3-.2-.3-.5-.6-.7-1-.4-1-.4-2.1-.4-3.2.2-.4.4-.8.6-1.3-.3,0-.6,0-.7-.1-.7-.7-1.5-1.5-2.1-2.3-.4-.4-.7-.9-.9-1.4-.2-.8-.2-1.6-.3-2.4.3-.5.6-1,1.1-1.4.4-.4,1-.5,1.6-.8.1.2.3.3.4.5-.1.1-1.2,1.1-1.2,1.1.1.1.2.2.3.3.5-.4,1-.8,1.8-.5-.2.3-.4.5-.6.9.4-.1.6-.2.9-.3.1.2.3.4.5.7-.3.3-.6.6-.9.9.2,0,.3.1.5.1-.3.4-.1,1-.8,1.2.6.5,1.3,1,2.1,1.5,2.5-2.1,4.9-4.1,7.4-6.1h1.1c-.2.4-.3.7-.5,1,.3.2.6,0,.9-.2.8.8,1,1.8.9,2.8-.3.4-.7.9-1.1,1.4,0,0,.1.1.2.2-.2,0-.4.1-.6.1.1.1.2.2.2.2h-.4c-.8,1.5-2.1,2.4-3,3.8,1.3.7,2.8,1.3,4.2,2.1,0,.2.1.4.1.7.2-.2.3-.3.4-.4.6.1.5.7,1,1,.4.2.7.8,1,1.2v1.3c-.1.1-.2.2-.4.4-1.2-.1-2.1-.8-3.2-1.3l-.1.1c-.7-.2-1.2-1-2-.9-.4-.5-1.1-.6-1.6-.9-.5-.3-1-.7-1.7-1"/>
      <path class="cls-1" d="M85.24,29.9c.2.1.4.2.7.4-.1.4-.1.7-.2,1.2.2.3.3.8.9,1,.3-.4.4-.8.9-1,.3-.1.6-.6.8-1,.3-.4.7-.6.9-1.1.2-.4.6-.6.9-1s.5-.8.7-1.2h1.3c.1.4.2.7-.2,1.1h.9c.1.5.2,1,.3,1.5-.2.1-.3.1-.5.2,0,.1,0,.2.1.3.3.8.3,1-.3,1.6-.3.3-.4.6-.3.9.2.4-.3.2-.1.6-.2-.2-.3-.3-.5-.4v.6c-.2,0-.4.1-.7.1v.6c-.3.3-.5.5-.7.7.4.4.8.7,1.1,1v.9c.2.2.5.5.8.8-.1.1-.1.2-.2.4.1.2.3.5.5.9-.2.5-.5,1-.7,1.4h-.9c-1.1-.6-2.2-1.2-3.2-1.8-.2.3-.3.5-.5.7-.2-.1-.3-.2-.6-.3v1.1c-.3-.1-.6-.2-1-.4q.2.3.3.5c-.2.2-.4.4-.8.7-.1-.4-.1-.7-.2-1,.2-.1.3-.1.5-.2,0-.1,0-.2.1-.3-.1,0-.3-.1-.4-.1,0-.2.1-.4.2-.7-.2.2-.3.3-.3.3-.5-.1-.9-.2-1.4-.3-.1-.1-.2-.3-.3-.5.1-.3.2-.7.3-1.1.2,0,.5.1.8.1v-.1c-.3-.1-.6-.3-.8-.4.2-.3.3-.6.5-.9-.7-1.3-1.6-2.5-2-3.8-.3-.9.1-1.9.2-2.8.1-.7.7-1.2,1.4-1.6.1-.1.2-.1.3-.2h1.1c.2.2.3.3.4.4-.2.2-.4.4-.6.6v.7c.2-.1.5-.1.8-.2.1.1.3.3.5.4-.4.3-.6.5-.8.7"/>
      <path class="cls-1" d="M17.34,41.5c.1.1.2.2.4.4-.7.6-1.4,1.2-2.1,1.8v.1c.1,0,.3,0,.4-.1.2-.2.4-.4.6-.4.5-.3,1-.5,1.4-.8.4.3.1.6-.1,1,.3-.1.4-.2.6-.2.1.1.2.2.3.3v1.4c-.1.1-.3.3-.4.4q0,.1.1.2c.3.2.5.4.8.6.3.2.7.2.7.7,0,.1.1.1.2.2.2.2.5.3.7.5s.3.5.5.8v.8c-.2.2-.4.4-.5.5l-4.2-1.5c-.3.2-.6.3-1,.5v-.1c-.3.3-.6.6-1,1v.5c-.6.6-1.2,1.2-1.7,1.7-.3.8-.1,1.6-1.2,1.7-.2-.3-1-.4-.8-1.2-.2-.1-.5-.1-.8-.2-.1,0-.2.1-.3.2-.3-.3-.5-.6-.9-1-.1-.7-.2-1.6-.3-2.6.9-1,1.9-2,2.8-3.1-.4-.2-.8-.4-1.1-.7-.4-.3-.6-.6-1-1,.1-.3.2-.6.3-.9-.2-.1-.3-.1-.5-.2v-.8q.1-.1.2-.2c.3-.1.7-.1,1.1-.2,1.1.6,2.3,1.3,3.5,2,1.4-.7,2.1-1.7,3.3-2.1"/>
    </g>
  </g>
</svg>