<?xml version="1.0" encoding="UTF-8"?>
<svg id="Layer_2" xmlns="http://www.w3.org/2000/svg" viewBox="0 0 28.76 28.76">
  <defs>
    <style>
      .cls-1 {
        fill: #09b850;
      }
    </style>
  </defs>
  <g id="Layer_1-2" data-name="Layer_1">
    <path class="cls-1" d="M7.19.9c0-.5-.4-.9-.9-.9s-.9.4-.9.9v.9h-1.8C1.61,1.8,0,3.41,0,5.39v1.8h28.76v-1.8c0-1.99-1.61-3.6-3.6-3.6h-1.8v-.9c0-.5-.4-.9-.9-.9s-.9.4-.9.9v.9H7.19v-.9ZM28.76,25.17V8.99H0v16.18c0,1.99,1.61,3.6,3.6,3.6h21.57c1.99,0,3.6-1.61,3.6-3.6M19.51,15.92l-5.39,5.39c-.35.35-.92.35-1.27,0,0,0,0,0,0,0l-2.7-2.7c-.35-.35-.35-.92,0-1.27s.92-.35,1.27,0l2.06,2.06,4.76-4.76c.35-.35.92-.35,1.27,0s.35.92,0,1.27"/>
  </g>
</svg>