<?xml version="1.0" encoding="UTF-8"?>
<svg id="Layer_2" xmlns="http://www.w3.org/2000/svg" viewBox="0 0 40.23 32.18">
  <defs>
    <style>
      .cls-1 {
        fill: #09b850;
      }
    </style>
  </defs>
  <g id="Layer_1-2" data-name="Layer_1">
    <path class="cls-1" d="M3.02,0C1.35,0,0,1.35,0,3.02v20.11c0,1.67,1.35,3.02,3.02,3.02h1.01c0,3.33,2.7,6.03,6.03,6.03s6.03-2.7,6.03-6.03h8.05c0,3.33,2.7,6.03,6.03,6.03s6.03-2.7,6.03-6.03h2.01c1.11,0,2.01-.9,2.01-2.01s-.9-2.01-2.01-2.01v-7.21c0-1.07-.42-2.09-1.18-2.85l-4.86-4.86c-.75-.75-1.78-1.18-2.85-1.18h-3.19v-3.02c0-1.67-1.35-3.02-3.02-3.02H3.02ZM26.15,10.06h3.19l4.86,4.86v1.18h-8.05v-6.03ZM7.04,26.15c0-1.67,1.35-3.02,3.02-3.02s3.02,1.35,3.02,3.02-1.35,3.02-3.02,3.02-3.02-1.35-3.02-3.02ZM30.17,23.13c1.67,0,3.02,1.35,3.02,3.02s-1.35,3.02-3.02,3.02-3.02-1.35-3.02-3.02,1.35-3.02,3.02-3.02Z"/>
  </g>
</svg>