<?xml version="1.0" encoding="UTF-8"?>
<svg id="Layer_2" xmlns="http://www.w3.org/2000/svg" viewBox="0 0 39.13 29.48">
  <defs>
    <style>
      .cls-1 {
        fill: #c1edd3;
      }

      .cls-2 {
        fill: #09b850;
      }
    </style>
  </defs>
  <g id="Layer_1-2" data-name="Layer_1">
    <g>
      <path class="cls-2" d="M17.18,29.26s-2.44,0-2.44-2.44,2.44-9.75,12.19-9.75,12.19,7.31,12.19,9.75-2.44,2.44-2.44,2.44h-19.5ZM26.94,14.63c4.04,0,7.31-3.27,7.31-7.31S30.97,0,26.94,0s-7.31,3.27-7.31,7.31,3.27,7.31,7.31,7.31"/>
      <g>
        <path class="cls-1" d="M12.72,29.48c-.36-.76-.54-1.6-.53-2.44,0-3.3,1.66-6.7,4.72-9.07-1.53-.47-3.12-.7-4.72-.68C2.44,17.29,0,24.61,0,27.04s2.44,2.44,2.44,2.44h10.28Z"/>
        <path class="cls-1" d="M10.97,14.85c3.37,0,6.1-2.73,6.1-6.1s-2.73-6.1-6.1-6.1-6.1,2.73-6.1,6.1,2.73,6.1,6.1,6.1"/>
      </g>
    </g>
  </g>
</svg>