<?xml version="1.0" encoding="UTF-8"?>
<svg id="Layer_2" xmlns="http://www.w3.org/2000/svg" viewBox="0 0 843.3 739.2">
  <g id="Layer_1-2" data-name="Layer_1">
    <g>
      <path d="M437.2,556.7c-3.6,2.5-7.4,4.8-11.3,6.4-12,5.5-25.7,7.9-42.2,7.4-30.6-1.1-65.6-12.5-102.8-24.4-50.7-16.2-103.3-33.4-152.5-27-56.1,7.2-97.9,44.4-128,114l-.4-.2c67.5-156.1,181-119.5,281.1-87.1,37,12,72,23.2,102.5,24.3,34.3,1.2,58.1-10.7,74.9-37.4,22.7-35.4,39.7-74.4,57.6-115.3,54.4-124.1,110.6-252.4,327.1-283.8l.1.4c-216.2,31.4-272.5,159.5-326.8,283.5-18.1,41.1-35,79.7-57.7,115.6-6.1,9.9-13.2,17.7-21.6,23.6Z"/>
      <path d="M452,543.7c-43.7,31-103,15.8-165.5-.2-49.9-12.7-101.5-25.8-148.7-16.7-53.3,10.5-93.2,49-121.6,118l-.5-.1c15.3-37.1,33.3-64.7,55.1-84.7,19.5-17.7,41.3-28.6,66.7-33.7,47.4-9.2,99,3.9,148.9,16.6,70.4,17.9,137.1,34.9,181.3-14.4,35.7-39.9,57.3-91.7,80.2-146.7,23.8-56.7,48.2-115.5,90.2-163.6,22.7-25.9,48.4-46.4,78.4-62.4,33.9-18.1,72.2-30.3,117.1-37.1l.1.4c-187.6,28.5-237.4,147.7-285.5,262.9-22.9,55-44.5,106.8-80.4,146.8-4.4,5.9-10.1,10.8-15.8,14.9Z"/>
      <path d="M472.4,528.7c-21.9,15.5-48.4,23.4-80.8,23.8-31.2.5-65.1-5.8-97.9-11.9-49.3-9.2-100.2-18.7-145.7-6.5-51.1,13.7-88.9,53.7-116,122.6l-.6-.2c60.5-154.1,163.3-135,262.6-116.5,68.1,12.7,132.6,24.6,183.6-15.8,48.1-38.2,71.1-100.6,95.6-166.5,20.3-55,41.4-111.6,78.3-158.1,20-25.1,42.7-44.9,69.2-60.5,30.1-17.5,64.2-29.1,104.3-35.4l.2.6c-167.2,26.3-210,141.9-251.4,253.5-24.4,66-47.7,128.3-95.7,166.7-1.9,1.6-3.8,2.9-5.7,4.2Z"/>
      <path d="M500,512.6c-4,2.9-8.2,5.6-12.6,8-56.6,31.5-120.9,23.8-183,16.6-51.7-6-100.4-11.8-144.6,3.2-49.9,16.9-85.5,57.7-111.3,128.2l-.6-.2c13.7-37.3,30.1-66,49.9-87.8,17.8-19.4,37.9-32.8,61.8-40.9,44.3-15,93.1-9.3,144.9-3.2,62.1,7.2,126.3,14.8,182.8-16.6,59.6-33.2,82-104.7,105.9-180.4,17.1-54.3,34.7-110.5,67.2-156.6,36.7-52,87.8-82.8,155.7-94l.2.6c-151.9,25-187.8,139.3-222.3,250-22.5,70.4-43.5,137.3-94,173.1Z"/>
      <path d="M524.6,501.8c-8.2,5.8-17.4,10.7-27.7,14.6-59.3,22-119.1,18.8-176.8,15.8-53.2-2.8-103.3-5.3-147.1,12.5-49.3,19.9-83.8,63.1-108.9,135.6l-.5-.1c25.1-72.7,59.6-115.9,108.9-136,44-18,94.2-15.3,147.6-12.6,57.7,3,117.4,6.1,176.6-15.9,70.7-26.2,91.1-106.3,112.8-191.4,13.9-54.5,28.3-111,56.7-156.9,31.9-51.9,77.9-82.5,140.5-93.1v.7c-139.3,23.8-168.6,138.7-196.7,249.5-18.5,72.8-36.3,142.2-85.4,177.3Z"/>
      <path d="M546.3,494.6c-11.3,8-24.6,14-40,17.4-56.8,12.7-112,12.7-160.5,12.9-60.2.1-112,.2-157,21.1-49.5,23-84,69.3-108.5,146l-.6-.2c24.3-76.7,58.9-123.1,108.6-146.3,45.1-21.1,97.2-21.1,157.4-21.2,48.6,0,103.6-.1,160.5-12.9,81.6-18.3,99-106.7,117.4-200.6,10.7-55,22-112,46.6-158.2,27.9-52.3,69.5-82.8,127.4-93.1l.1.8c-128.6,23.2-151.4,138.9-173.4,250.9-14.9,76-29.4,148.9-78,183.4Z"/>
      <path d="M566.4,489.7c-13.7,9.7-30.2,16-50.8,18-44.4,4.6-86.5,5.8-123.6,6.8-71.2,2-132.8,3.7-182,27.7-52.9,25.7-89.1,77.1-113.9,161.4l-.8-.1c13-44.6,29-79.3,48.6-106.3,18.1-24.9,39.5-43.1,65.6-55.7,49.5-24.1,110.9-25.8,182.4-27.7,37.1-1,79.3-2.2,123.5-6.7,92.6-9.4,106.2-106.5,120.5-209.2,7.8-55.9,15.9-113.6,37-160,23.8-52.7,61.6-83.1,115.3-93.4l.3.7c-53.4,10.1-91,40.4-114.6,92.9-21.1,46.4-29.2,104.1-36.8,159.9-11.4,80.3-22.2,157.3-70.7,191.7Z"/>
      <path d="M585.5,486.3c-15.5,11-35.2,17.2-60.4,17.3-12.3.1-24.5.1-36.1.1-103.7,0-185.5-.1-246.4,26.4-63.5,27.7-103.7,85-130.5,185.5l-.8-.1c13.9-52.5,31.3-92.6,53.2-122.9,20.7-28.8,46.2-49.4,77.8-63.2,61-26.6,142.9-26.4,246.6-26.4,11.7.1,23.8,0,36.1-.1,103.8-.2,112.9-105.6,122.5-217.2,4.7-56.9,9.9-115.5,27.5-162.4,20-53.1,54.1-83.7,104.1-93.7l.1.8c-49.5,9.8-83.5,40.3-103.3,93.1-17.6,46.9-22.7,105.4-27.6,162-7.1,85-14.3,166.4-62.8,200.8Z"/>
      <path d="M603.8,484.1c-17.9,12.7-40.7,17.7-69.2,15.4-255.5-21-355.2,10.3-406.3,228l-.9-.3c25.9-110.7,64-171.6,127-204,66.6-34.2,160.2-34.6,280.3-24.7,32.2,2.6,56.9-4.1,75.4-20.5,42.1-37.4,45.1-118.6,48-204.7,4-116.5,8.1-236.8,112.1-258.6l.1.8c-103.3,21.6-107.4,141.6-111.4,257.7-3.1,86.3-5.8,167.7-48.3,205.2-2.2,2.2-4.5,4-6.8,5.7Z"/>
      <path d="M621.7,482.6c-19.3,13.7-44.8,17.9-77.7,12.7-138.5-21.4-227.1-13-287.3,27-55.4,36.8-89.1,101.7-112.4,216.9l-.9-.3c23.5-115.6,57.3-180.6,112.8-217.7,60.3-40.1,149.1-48.6,288.1-27.3,35.9,5.5,63,0,82.6-16.9,43.2-37.5,42.2-124.3,40.9-216.1-1.8-117.6-3.7-239.8,93.2-260.9l.1.8c-96,21.1-94.3,142.7-92.7,260.6,1.3,92.1,2.4,179-41.1,216.7-1.9,1.6-3.6,3.1-5.6,4.5Z"/>
    </g>
  </g>
</svg>